Pacifico-Light.ufo
<glyph name="quotesingle" format="1">
  <advance width="179"/>
  <unicode hex="0027"/>
  <outline>
    <contour>
      <point x="56" y="389" type="curve" smooth="yes"/>
      <point x="64" y="389"/>
      <point x="98" y="419"/>
      <point x="111" y="440" type="curve"/>
      <point x="125" y="461"/>
      <point x="190" y="554"/>
      <point x="190" y="598" type="curve" smooth="yes"/>
      <point x="190" y="615"/>
      <point x="181" y="626"/>
      <point x="160" y="626" type="curve" smooth="yes"/>
      <point x="125" y="626"/>
      <point x="103" y="494"/>
      <point x="53" y="416" type="curve"/>
      <point x="46" y="404"/>
      <point x="43" y="389"/>
    </contour>
  </outline>
</glyph>
<glyph name="asterisk" format="1">
  <advance width="350"/>
  <unicode hex="002A"/>
  <outline>
    <contour>
      <point x="145" y="302" type="curve" smooth="yes"/>
      <point x="164" y="302"/>
      <point x="181" y="312"/>
      <point x="181" y="327" type="curve"/>
      <point x="185" y="437" type="line"/>
      <point x="266" y="362" type="line"/>
      <point x="280" y="348"/>
      <point x="318" y="361"/>
      <point x="318" y="387" type="curve" smooth="yes"/>
      <point x="318" y="410"/>
      <point x="265" y="427"/>
      <point x="208" y="457" type="curve"/>
      <point x="244" y="461"/>
      <point x="333" y="470"/>
      <point x="333" y="496" type="curve" smooth="yes"/>
      <point x="333" y="522"/>
      <point x="305" y="538"/>
      <point x="289" y="529" type="curve" smooth="yes"/>
      <point x="255" y="511"/>
      <point x="225" y="497"/>
      <point x="192" y="480" type="curve"/>
      <point x="207" y="513"/>
      <point x="216" y="548"/>
      <point x="229" y="586" type="curve" smooth="yes"/>
      <point x="234" y="603"/>
      <point x="227" y="617"/>
      <point x="206" y="617" type="curve" smooth="yes"/>
      <point x="187" y="617"/>
      <point x="170" y="608"/>
      <point x="170" y="592" type="curve" smooth="yes"/>
      <point x="170" y="553"/>
      <point x="166" y="518"/>
      <point x="166" y="481" type="curve"/>
      <point x="134" y="509"/>
      <point x="88" y="562"/>
      <point x="69" y="562" type="curve" smooth="yes"/>
      <point x="51" y="562"/>
      <point x="32" y="547"/>
      <point x="32" y="530" type="curve" smooth="yes"/>
      <point x="32" y="506"/>
      <point x="107" y="482"/>
      <point x="145" y="462" type="curve"/>
      <point x="138" y="460"/>
      <point x="18" y="453"/>
      <point x="18" y="422" type="curve" smooth="yes"/>
      <point x="18" y="395"/>
      <point x="48" y="379"/>
      <point x="62" y="389" type="curve"/>
      <point x="95" y="406"/>
      <point x="127" y="422"/>
      <point x="158" y="440" type="curve"/>
      <point x="150" y="409"/>
      <point x="120" y="364"/>
      <point x="120" y="322" type="curve" smooth="yes"/>
      <point x="120" y="309"/>
      <point x="130" y="302"/>
    </contour>
  </outline>
</glyph>
<glyph name="zero" format="1">
  <advance width="417"/>
  <unicode hex="0030"/>
  <outline>
    <contour>
      <point x="366" y="297" type="curve" smooth="yes"/>
      <point x="366" y="158"/>
      <point x="302" y="28"/>
      <point x="191" y="35" type="curve" smooth="yes"/>
      <point x="131" y="39"/>
      <point x="102" y="93"/>
      <point x="102" y="192" type="curve" smooth="yes"/>
      <point x="102" y="327"/>
      <point x="158" y="451"/>
      <point x="266" y="451" type="curve" smooth="yes"/>
      <point x="334" y="451"/>
      <point x="366" y="380"/>
    </contour>
    <contour>
      <point x="196" y="-7" type="curve" smooth="yes"/>
      <point x="343" y="-10"/>
      <point x="418" y="155"/>
      <point x="418" y="301" type="curve" smooth="yes"/>
      <point x="418" y="407"/>
      <point x="374" y="495"/>
      <point x="263" y="495" type="curve" smooth="yes"/>
      <point x="112" y="495"/>
      <point x="47" y="333"/>
      <point x="47" y="185" type="curve" smooth="yes"/>
      <point x="47" y="80"/>
      <point x="81" y="-4"/>
    </contour>
  </outline>
</glyph>
<glyph name="seven" format="1">
  <advance width="417"/>
  <unicode hex="0037"/>
  <outline>
    <contour>
      <point x="184" y="18" type="curve" smooth="yes"/>
      <point x="221" y="141"/>
      <point x="275" y="283"/>
      <point x="360" y="410" type="curve"/>
      <point x="369" y="425"/>
      <point x="392" y="428"/>
      <point x="392" y="445" type="curve" smooth="yes"/>
      <point x="392" y="459"/>
      <point x="389" y="465"/>
      <point x="381" y="465" type="curve" smooth="yes"/>
      <point x="374" y="465"/>
      <point x="342" y="462"/>
      <point x="327" y="462" type="curve" smooth="yes"/>
      <point x="289" y="462"/>
      <point x="211" y="467"/>
      <point x="147" y="467" type="curve" smooth="yes"/>
      <point x="69" y="467"/>
      <point x="80" y="401"/>
      <point x="109" y="396" type="curve"/>
      <point x="129" y="394"/>
      <point x="140" y="430"/>
      <point x="209" y="428" type="curve" smooth="yes"/>
      <point x="320" y="425" type="line"/>
      <point x="258" y="333"/>
      <point x="140" y="111"/>
      <point x="130" y="14" type="curve" smooth="yes"/>
      <point x="126" y="-20"/>
      <point x="172" y="-21"/>
    </contour>
  </outline>
</glyph>
<glyph name="equal" format="1">
  <advance width="583"/>
  <unicode hex="003D"/>
  <outline>
    <contour>
      <point x="177" y="108" type="curve" smooth="yes"/>
      <point x="448" y="108" type="line" smooth="yes"/>
      <point x="513" y="108"/>
      <point x="544" y="118"/>
      <point x="544" y="154" type="curve" smooth="yes"/>
      <point x="544" y="162"/>
      <point x="539" y="165"/>
      <point x="526" y="165" type="curve" smooth="yes"/>
      <point x="413" y="165" type="line" smooth="yes"/>
      <point x="374" y="165"/>
      <point x="294" y="161"/>
      <point x="202" y="165" type="curve" smooth="yes"/>
      <point x="165" y="166"/>
      <point x="129" y="162"/>
      <point x="129" y="142" type="curve" smooth="yes"/>
      <point x="129" y="117"/>
      <point x="145" y="108"/>
    </contour>
    <contour>
      <point x="183" y="254" type="curve" smooth="yes"/>
      <point x="488" y="259" type="line" smooth="yes"/>
      <point x="532" y="260"/>
      <point x="562" y="270"/>
      <point x="562" y="294" type="curve" smooth="yes"/>
      <point x="562" y="314"/>
      <point x="556" y="318"/>
      <point x="547" y="320" type="curve" smooth="yes"/>
      <point x="491" y="333"/>
      <point x="430" y="312"/>
      <point x="309" y="315" type="curve"/>
      <point x="220" y="317" type="line" smooth="yes"/>
      <point x="183" y="318"/>
      <point x="147" y="313"/>
      <point x="147" y="286" type="curve" smooth="yes"/>
      <point x="147" y="267"/>
      <point x="163" y="254"/>
    </contour>
  </outline>
</glyph>
<glyph name="greater" format="1">
  <advance width="404"/>
  <unicode hex="003E"/>
  <outline>
    <contour>
      <point x="91" y="46" type="curve" smooth="yes"/>
      <point x="129" y="46"/>
      <point x="166" y="68"/>
      <point x="198" y="85" type="curve" smooth="yes"/>
      <point x="283" y="129"/>
      <point x="377" y="151"/>
      <point x="377" y="214" type="curve" smooth="yes"/>
      <point x="377" y="259"/>
      <point x="302" y="277"/>
      <point x="205" y="317" type="curve" smooth="yes"/>
      <point x="169" y="332"/>
      <point x="109" y="357"/>
      <point x="85" y="360" type="curve" smooth="yes"/>
      <point x="66" y="363"/>
      <point x="57" y="357"/>
      <point x="57" y="334" type="curve" smooth="yes"/>
      <point x="57" y="321"/>
      <point x="64" y="313"/>
      <point x="81" y="308" type="curve" smooth="yes"/>
      <point x="101" y="301"/>
      <point x="302" y="230"/>
      <point x="334" y="211" type="curve"/>
      <point x="298" y="186"/>
      <point x="125" y="103"/>
      <point x="87" y="93" type="curve" smooth="yes"/>
      <point x="69" y="88"/>
      <point x="59" y="78"/>
      <point x="63" y="66" type="curve" smooth="yes"/>
      <point x="66" y="56"/>
      <point x="76" y="46"/>
    </contour>
  </outline>
</glyph>
<glyph name="at" format="1">
  <advance width="766"/>
  <unicode hex="0040"/>
  <outline>
    <contour>
      <point x="333" y="-134" type="curve" smooth="yes"/>
      <point x="432" y="-134"/>
      <point x="537" y="-109"/>
      <point x="611" y="-65" type="curve" smooth="yes"/>
      <point x="642" y="-48"/>
      <point x="622" y="-2"/>
      <point x="590" y="-21" type="curve" smooth="yes"/>
      <point x="512" y="-66"/>
      <point x="425" y="-84"/>
      <point x="343" y="-84" type="curve" smooth="yes"/>
      <point x="162" y="-84"/>
      <point x="103" y="14"/>
      <point x="103" y="121" type="curve" smooth="yes"/>
      <point x="103" y="308"/>
      <point x="253" y="489"/>
      <point x="462" y="489" type="curve" smooth="yes"/>
      <point x="599" y="489"/>
      <point x="671" y="419"/>
      <point x="671" y="287" type="curve" smooth="yes"/>
      <point x="671" y="212"/>
      <point x="624" y="64"/>
      <point x="543" y="75" type="curve" smooth="yes"/>
      <point x="525" y="77"/>
      <point x="514" y="94"/>
      <point x="523" y="131" type="curve" smooth="yes"/>
      <point x="579" y="353" type="line" smooth="yes"/>
      <point x="587" y="388"/>
      <point x="580" y="400"/>
      <point x="551" y="399" type="curve" smooth="yes"/>
      <point x="531" y="399" type="line" smooth="yes"/>
      <point x="516" y="399"/>
      <point x="525" y="416"/>
      <point x="515" y="416" type="curve" smooth="yes"/>
      <point x="378" y="416"/>
      <point x="217" y="295"/>
      <point x="217" y="127" type="curve" smooth="yes"/>
      <point x="217" y="60"/>
      <point x="258" y="18"/>
      <point x="323" y="16" type="curve" smooth="yes"/>
      <point x="400" y="14"/>
      <point x="456" y="62"/>
      <point x="489" y="145" type="curve"/>
      <point x="471" y="76"/>
      <point x="490" y="45"/>
      <point x="525" y="37" type="curve" smooth="yes"/>
      <point x="624" y="14"/>
      <point x="721" y="131"/>
      <point x="721" y="294" type="curve" smooth="yes"/>
      <point x="721" y="451"/>
      <point x="626" y="536"/>
      <point x="462" y="536" type="curve" smooth="yes"/>
      <point x="252" y="536"/>
      <point x="43" y="357"/>
      <point x="43" y="123" type="curve" smooth="yes"/>
      <point x="43" y="-11"/>
      <point x="123" y="-134"/>
    </contour>
    <contour>
      <point x="350" y="63" type="curve" smooth="yes"/>
      <point x="287" y="57"/>
      <point x="273" y="97"/>
      <point x="273" y="130" type="curve" smooth="yes"/>
      <point x="273" y="277"/>
      <point x="400" y="385"/>
      <point x="525" y="364" type="curve"/>
      <point x="476" y="195" type="line" smooth="yes"/>
      <point x="460" y="143"/>
      <point x="419" y="71"/>
    </contour>
  </outline>
</glyph>
<glyph name="D" format="1">
  <advance width="558"/>
  <unicode hex="0044"/>
  <outline>
    <contour>
      <point x="162" y="-41" type="curve" smooth="yes"/>
      <point x="417" y="-41"/>
      <point x="556" y="164"/>
      <point x="556" y="353" type="curve" smooth="yes"/>
      <point x="556" y="514"/>
      <point x="454" y="663"/>
      <point x="238" y="663" type="curve" smooth="yes"/>
      <point x="148" y="663"/>
      <point x="75" y="634"/>
      <point x="23" y="577" type="curve" smooth="yes"/>
      <point x="6" y="559"/>
      <point x="-12" y="530"/>
      <point x="-13" y="502" type="curve" smooth="yes"/>
      <point x="-14" y="492"/>
      <point x="-7" y="481"/>
      <point x="0" y="481" type="curve" smooth="yes"/>
      <point x="21" y="481"/>
      <point x="19" y="505"/>
      <point x="62" y="547" type="curve" smooth="yes"/>
      <point x="112" y="598"/>
      <point x="178" y="612"/>
      <point x="225" y="612" type="curve" smooth="yes"/>
      <point x="411" y="612"/>
      <point x="498" y="483"/>
      <point x="497" y="344" type="curve" smooth="yes"/>
      <point x="497" y="180"/>
      <point x="376" y="3"/>
      <point x="156" y="3" type="curve" smooth="yes"/>
      <point x="114" y="3"/>
      <point x="109" y="2"/>
      <point x="110" y="20" type="curve" smooth="yes"/>
      <point x="117" y="142"/>
      <point x="167" y="455"/>
      <point x="226" y="537" type="curve"/>
      <point x="219" y="547"/>
      <point x="211" y="551"/>
      <point x="202" y="551" type="curve" smooth="yes"/>
      <point x="192" y="551"/>
      <point x="180" y="547"/>
      <point x="167" y="538" type="curve"/>
      <point x="96" y="439"/>
      <point x="60" y="154"/>
      <point x="51" y="-14" type="curve" smooth="yes"/>
      <point x="50" y="-23"/>
      <point x="50" y="-23"/>
      <point x="55" y="-25" type="curve" smooth="yes"/>
      <point x="76" y="-33"/>
      <point x="118" y="-41"/>
    </contour>
    <contour>
      <point x="177" y="-36" type="move" name="bot"/>
    </contour>
  </outline>
</glyph>
<glyph name="H" format="1">
  <advance width="678"/>
  <unicode hex="0048"/>
  <outline>
    <contour>
      <point x="701" y="-60" type="curve" smooth="yes"/>
      <point x="713" y="-49"/>
      <point x="679" y="-27"/>
      <point x="670" y="-35" type="curve" smooth="yes"/>
      <point x="624" y="-80"/>
      <point x="384" y="-160"/>
      <point x="454" y="121" type="curve" smooth="yes"/>
      <point x="535" y="449" type="line" smooth="yes"/>
      <point x="582" y="636"/>
      <point x="755" y="636"/>
      <point x="761" y="545" type="curve" smooth="yes"/>
      <point x="771" y="391"/>
      <point x="388" y="231"/>
      <point x="70" y="282" type="curve" smooth="yes"/>
      <point x="44" y="286"/>
      <point x="29" y="237"/>
      <point x="58" y="234" type="curve" smooth="yes"/>
      <point x="423" y="192"/>
      <point x="823" y="352"/>
      <point x="812" y="546" type="curve" smooth="yes"/>
      <point x="803" y="699"/>
      <point x="540" y="706"/>
      <point x="479" y="449" type="curve" smooth="yes"/>
      <point x="400" y="113" type="line" smooth="yes"/>
      <point x="338" y="-152"/>
      <point x="581" y="-165"/>
    </contour>
    <contour>
      <point x="29" y="-104" type="curve" smooth="yes"/>
      <point x="59" y="-108"/>
      <point x="67" y="-91"/>
      <point x="80" y="-51" type="curve" smooth="yes"/>
      <point x="233" y="388" type="line"/>
      <point x="278" y="532"/>
      <point x="254" y="613"/>
      <point x="159" y="643" type="curve" smooth="yes"/>
      <point x="38" y="680"/>
      <point x="-125" y="601"/>
      <point x="-125" y="437" type="curve" smooth="yes"/>
      <point x="-125" y="410"/>
      <point x="-88" y="413"/>
      <point x="-87" y="424" type="curve" smooth="yes"/>
      <point x="-83" y="518"/>
      <point x="8" y="632"/>
      <point x="135" y="600" type="curve" smooth="yes"/>
      <point x="212" y="580"/>
      <point x="228" y="526"/>
      <point x="166" y="357" type="curve"/>
      <point x="25" y="-33" type="line" smooth="yes"/>
      <point x="4" y="-92"/>
      <point x="13" y="-101"/>
    </contour>
  </outline>
</glyph>
<glyph name="P" format="1">
  <advance width="589"/>
  <unicode hex="0050"/>
  <outline>
    <contour>
      <point x="240" y="-67" type="curve" smooth="yes"/>
      <point x="165" y="-67"/>
      <point x="143" y="100"/>
      <point x="143" y="221" type="curve" smooth="yes"/>
      <point x="143" y="393"/>
      <point x="223" y="629"/>
      <point x="408" y="643" type="curve" smooth="yes"/>
      <point x="557" y="653"/>
      <point x="643" y="583"/>
      <point x="643" y="485" type="curve" smooth="yes"/>
      <point x="643" y="384"/>
      <point x="539" y="317"/>
      <point x="388" y="312" type="curve"/>
      <point x="393" y="346"/>
      <point x="410" y="419"/>
      <point x="444" y="478" type="curve" smooth="yes"/>
      <point x="449" y="485"/>
      <point x="437" y="496"/>
      <point x="415" y="496" type="curve" smooth="yes"/>
      <point x="358" y="496"/>
      <point x="349" y="418"/>
      <point x="330" y="314" type="curve"/>
      <point x="302" y="314"/>
      <point x="257" y="339"/>
      <point x="247" y="344" type="curve" smooth="yes"/>
      <point x="240" y="347"/>
      <point x="241" y="333"/>
      <point x="241" y="326" type="curve" smooth="yes"/>
      <point x="241" y="286"/>
      <point x="300" y="272"/>
      <point x="325" y="270" type="curve"/>
      <point x="307" y="131"/>
      <point x="312" y="-67"/>
    </contour>
    <contour>
      <point x="229" y="-119" type="curve" smooth="yes"/>
      <point x="323" y="-119"/>
      <point x="349" y="-35"/>
      <point x="363" y="99" type="curve"/>
      <point x="375" y="202"/>
      <point x="383" y="266"/>
      <point x="385" y="266" type="curve" smooth="yes"/>
      <point x="579" y="272"/>
      <point x="699" y="359"/>
      <point x="699" y="491" type="curve" smooth="yes"/>
      <point x="699" y="616"/>
      <point x="601" y="709"/>
      <point x="409" y="696" type="curve" smooth="yes"/>
      <point x="208" y="682"/>
      <point x="87" y="485"/>
      <point x="87" y="232" type="curve" smooth="yes"/>
      <point x="87" y="45"/>
      <point x="131" y="-119"/>
    </contour>
  </outline>
</glyph>
<glyph name="U" format="1">
  <advance width="632"/>
  <unicode hex="0055"/>
  <outline>
    <contour>
      <point x="283" y="10" type="curve" smooth="yes"/>
      <point x="84" y="10"/>
      <point x="146" y="360"/>
      <point x="261" y="548" type="curve" smooth="yes"/>
      <point x="279" y="578"/>
      <point x="226" y="588"/>
      <point x="203" y="551" type="curve" smooth="yes"/>
      <point x="71" y="333"/>
      <point x="23" y="-43"/>
      <point x="280" y="-43" type="curve" smooth="yes"/>
      <point x="606" y="-43"/>
      <point x="780" y="689"/>
      <point x="547" y="681" type="curve" smooth="yes"/>
      <point x="308" y="672"/>
      <point x="434" y="250"/>
      <point x="790" y="492" type="curve" smooth="yes"/>
      <point x="813" y="507"/>
      <point x="791" y="541"/>
      <point x="764" y="523" type="curve" smooth="yes"/>
      <point x="477" y="332"/>
      <point x="404" y="631"/>
      <point x="534" y="636" type="curve" smooth="yes"/>
      <point x="702" y="643"/>
      <point x="533" y="10"/>
    </contour>
    <contour>
      <point x="89" y="444" type="curve" smooth="yes"/>
      <point x="239" y="537" type="line" smooth="yes"/>
      <point x="252" y="545"/>
      <point x="239" y="580"/>
      <point x="226" y="572" type="curve" smooth="yes"/>
      <point x="78" y="483" type="line" smooth="yes"/>
      <point x="57" y="471"/>
      <point x="68" y="431"/>
    </contour>
    <contour>
      <point x="310" y="-27" type="move" name="ogonek"/>
    </contour>
  </outline>
</glyph>
<glyph name="bracketright" format="1">
  <advance width="316"/>
  <unicode hex="005D"/>
  <outline>
    <contour>
      <point x="37" y="-55" type="curve" smooth="yes"/>
      <point x="173" y="-55" type="line" smooth="yes"/>
      <point x="203" y="-55"/>
      <point x="209" y="-46"/>
      <point x="214" y="-12" type="curve" smooth="yes"/>
      <point x="233" y="115"/>
      <point x="281" y="381"/>
      <point x="285" y="418" type="curve"/>
      <point x="303" y="528"/>
      <point x="304" y="533"/>
      <point x="304" y="537" type="curve" smooth="yes"/>
      <point x="304" y="555"/>
      <point x="292" y="560"/>
      <point x="265" y="560" type="curve" smooth="yes"/>
      <point x="133" y="560" type="line" smooth="yes"/>
      <point x="113" y="560"/>
      <point x="103" y="548"/>
      <point x="103" y="539" type="curve" smooth="yes"/>
      <point x="103" y="529"/>
      <point x="111" y="521"/>
      <point x="129" y="521" type="curve" smooth="yes"/>
      <point x="254" y="521" type="line"/>
      <point x="211" y="253" type="line"/>
      <point x="166" y="-17" type="line"/>
      <point x="41" y="-17" type="line" smooth="yes"/>
      <point x="26" y="-17"/>
      <point x="19" y="-27"/>
      <point x="19" y="-38" type="curve" smooth="yes"/>
      <point x="19" y="-47"/>
      <point x="24" y="-55"/>
    </contour>
  </outline>
</glyph>
<glyph name="d" format="1">
  <advance width="395"/>
  <unicode hex="0064"/>
  <outline>
    <contour>
      <point x="115" y="-5" type="curve" smooth="yes"/>
      <point x="171" y="-7"/>
      <point x="215" y="42"/>
      <point x="231" y="93" type="curve"/>
      <point x="238" y="29"/>
      <point x="280" y="-3"/>
      <point x="324" y="-3" type="curve" smooth="yes"/>
      <point x="395" y="-3"/>
      <point x="437" y="42"/>
      <point x="469" y="82" type="curve" smooth="yes"/>
      <point x="472" y="85"/>
      <point x="476" y="93"/>
      <point x="475" y="99" type="curve" smooth="yes"/>
      <point x="475" y="111"/>
      <point x="465" y="119"/>
      <point x="455" y="118" type="curve" smooth="yes"/>
      <point x="449" y="118"/>
      <point x="447" y="115"/>
      <point x="442" y="110" type="curve"/>
      <point x="417" y="74"/>
      <point x="376" y="42"/>
      <point x="328" y="42" type="curve" smooth="yes"/>
      <point x="292" y="42"/>
      <point x="269" y="72"/>
      <point x="273" y="146" type="curve"/>
      <point x="351" y="260"/>
      <point x="496" y="448"/>
      <point x="485" y="601" type="curve" smooth="yes"/>
      <point x="483" y="630"/>
      <point x="459" y="657"/>
      <point x="425" y="657" type="curve" smooth="yes"/>
      <point x="333" y="657"/>
      <point x="270" y="516"/>
      <point x="241" y="318" type="curve"/>
      <point x="140" y="363"/>
      <point x="19" y="215"/>
      <point x="27" y="91" type="curve" smooth="yes"/>
      <point x="31" y="35"/>
      <point x="66" y="-3"/>
    </contour>
    <contour>
      <point x="132" y="41" type="curve" smooth="yes"/>
      <point x="103" y="37"/>
      <point x="82" y="53"/>
      <point x="78" y="102" type="curve" smooth="yes"/>
      <point x="72" y="186"/>
      <point x="149" y="306"/>
      <point x="239" y="280" type="curve"/>
      <point x="226" y="182" type="line"/>
      <point x="215" y="114"/>
      <point x="176" y="45"/>
    </contour>
    <contour>
      <point x="277" y="211" type="curve"/>
      <point x="297" y="351"/>
      <point x="334" y="595"/>
      <point x="408" y="595" type="curve" smooth="yes"/>
      <point x="421" y="595"/>
      <point x="434" y="587"/>
      <point x="436" y="563" type="curve" smooth="yes"/>
      <point x="442" y="466"/>
      <point x="369" y="346"/>
    </contour>
    <contour>
      <point x="521" y="555" type="move" name="caron.alt"/>
    </contour>
  </outline>
</glyph>
<glyph name="e" format="1">
  <advance width="263"/>
  <unicode hex="0065"/>
  <outline>
    <contour>
      <point x="151" y="-6" type="curve" smooth="yes"/>
      <point x="240" y="-9"/>
      <point x="323" y="50"/>
      <point x="354" y="91" type="curve" smooth="yes"/>
      <point x="368" y="109"/>
      <point x="345" y="128"/>
      <point x="338" y="121" type="curve" smooth="yes"/>
      <point x="232" y="16"/>
      <point x="95" y="5"/>
      <point x="78" y="109" type="curve"/>
      <point x="196" y="125"/>
      <point x="270" y="184"/>
      <point x="270" y="255" type="curve" smooth="yes"/>
      <point x="270" y="302"/>
      <point x="229" y="331"/>
      <point x="182" y="331" type="curve" smooth="yes"/>
      <point x="92" y="331"/>
      <point x="25" y="239"/>
      <point x="25" y="132" type="curve" smooth="yes"/>
      <point x="25" y="51"/>
      <point x="80" y="-3"/>
    </contour>
    <contour>
      <point x="77" y="148" type="curve"/>
      <point x="77" y="208"/>
      <point x="125" y="289"/>
      <point x="186" y="289" type="curve" smooth="yes"/>
      <point x="206" y="289"/>
      <point x="228" y="274"/>
      <point x="225" y="242" type="curve" smooth="yes"/>
      <point x="220" y="192"/>
      <point x="130" y="152"/>
    </contour>
    <contour>
      <point x="208" y="0" type="move" name="ogonek"/>
    </contour>
  </outline>
</glyph>
<glyph name="h" format="1">
  <advance width="381"/>
  <unicode hex="0068"/>
  <outline>
    <contour>
      <point x="60" y="0" type="curve" smooth="yes"/>
      <point x="89" y="-12"/>
      <point x="106" y="9"/>
      <point x="117" y="32" type="curve" smooth="yes"/>
      <point x="154" y="112"/>
      <point x="202" y="176"/>
      <point x="238" y="209" type="curve" smooth="yes"/>
      <point x="367" y="331"/>
      <point x="251" y="196"/>
      <point x="244" y="69" type="curve" smooth="yes"/>
      <point x="242" y="30"/>
      <point x="260" y="0"/>
      <point x="301" y="0" type="curve" smooth="yes"/>
      <point x="364" y="-1"/>
      <point x="418" y="42"/>
      <point x="455" y="70" type="curve" smooth="yes"/>
      <point x="468" y="80"/>
      <point x="472" y="90"/>
      <point x="471" y="101" type="curve" smooth="yes"/>
      <point x="469" y="115"/>
      <point x="459" y="126"/>
      <point x="454" y="126" type="curve" smooth="yes"/>
      <point x="448" y="126"/>
      <point x="444" y="122"/>
      <point x="437" y="115" type="curve" smooth="yes"/>
      <point x="422" y="100"/>
      <point x="369" y="46"/>
      <point x="323" y="46" type="curve" smooth="yes"/>
      <point x="312" y="46"/>
      <point x="301" y="51"/>
      <point x="300" y="63" type="curve" smooth="yes"/>
      <point x="295" y="111"/>
      <point x="341" y="226"/>
      <point x="359" y="267" type="curve"/>
      <point x="370" y="296"/>
      <point x="354" y="326"/>
      <point x="323" y="326" type="curve" smooth="yes"/>
      <point x="293" y="326"/>
      <point x="180" y="251"/>
      <point x="91" y="72" type="curve"/>
      <point x="98" y="212" type="line"/>
      <point x="286" y="376"/>
      <point x="345" y="503"/>
      <point x="349" y="580" type="curve"/>
      <point x="349" y="625"/>
      <point x="322" y="656"/>
      <point x="275" y="656" type="curve" smooth="yes"/>
      <point x="109" y="656"/>
      <point x="40" y="298"/>
      <point x="42" y="106" type="curve" smooth="yes"/>
      <point x="42" y="75"/>
      <point x="37" y="10"/>
    </contour>
    <contour>
      <point x="101" y="265" type="curve"/>
      <point x="115" y="429"/>
      <point x="207" y="613"/>
      <point x="268" y="602" type="curve" smooth="yes"/>
      <point x="287" y="599"/>
      <point x="294" y="586"/>
      <point x="294" y="567" type="curve"/>
      <point x="294" y="506"/>
      <point x="190" y="349"/>
    </contour>
  </outline>
</glyph>
<glyph name="n" format="1">
  <advance width="363"/>
  <unicode hex="006E"/>
  <outline>
    <contour>
      <point x="293" y="-4" type="curve" smooth="yes"/>
      <point x="330" y="-8"/>
      <point x="399" y="12"/>
      <point x="451" y="102" type="curve" smooth="yes"/>
      <point x="459" y="116"/>
      <point x="428" y="144"/>
      <point x="414" y="121" type="curve" smooth="yes"/>
      <point x="378" y="61"/>
      <point x="345" y="42"/>
      <point x="320" y="40" type="curve" smooth="yes"/>
      <point x="291" y="37"/>
      <point x="282" y="49"/>
      <point x="285" y="71" type="curve" smooth="yes"/>
      <point x="292" y="130"/>
      <point x="323" y="222"/>
      <point x="346" y="289" type="curve" smooth="yes"/>
      <point x="351" y="305"/>
      <point x="337" y="328"/>
      <point x="304" y="328" type="curve" smooth="yes"/>
      <point x="267" y="328"/>
      <point x="166" y="262"/>
      <point x="91" y="74" type="curve"/>
      <point x="94" y="147"/>
      <point x="125" y="266"/>
      <point x="141" y="305" type="curve" smooth="yes"/>
      <point x="145" y="314"/>
      <point x="131" y="326"/>
      <point x="116" y="326" type="curve" smooth="yes"/>
      <point x="99" y="326"/>
      <point x="95" y="315"/>
      <point x="87" y="298" type="curve" smooth="yes"/>
      <point x="60" y="235"/>
      <point x="43" y="131"/>
      <point x="43" y="63" type="curve" smooth="yes"/>
      <point x="42" y="27"/>
      <point x="42" y="0"/>
      <point x="68" y="0" type="curve" smooth="yes"/>
      <point x="94" y="0"/>
      <point x="103" y="2"/>
      <point x="116" y="32" type="curve"/>
      <point x="172" y="196"/>
      <point x="271" y="275"/>
      <point x="282" y="269" type="curve" smooth="yes"/>
      <point x="294" y="261"/>
      <point x="233" y="143"/>
      <point x="232" y="61" type="curve" smooth="yes"/>
      <point x="231" y="21"/>
      <point x="257" y="0"/>
    </contour>
  </outline>
</glyph>
<glyph name="q" format="1">
  <advance width="333"/>
  <unicode hex="0071"/>
  <outline>
    <contour>
      <point x="198" y="45" type="curve"/>
      <point x="19" y="0"/>
      <point x="59" y="286"/>
      <point x="200" y="286" type="curve" smooth="yes"/>
      <point x="225" y="286"/>
      <point x="257" y="276"/>
      <point x="255" y="264" type="curve" smooth="yes"/>
      <point x="249" y="234"/>
      <point x="225" y="116"/>
    </contour>
    <contour>
      <point x="262" y="73" type="line" smooth="yes"/>
      <point x="276" y="123"/>
      <point x="299" y="219"/>
      <point x="309" y="271" type="curve" smooth="yes"/>
      <point x="313" y="293"/>
      <point x="257" y="330"/>
      <point x="195" y="330" type="curve"/>
      <point x="-25" y="322"/>
      <point x="-21" y="-57"/>
      <point x="192" y="5" type="curve"/>
      <point x="174" y="-64"/>
      <point x="144" y="-162"/>
      <point x="117" y="-242" type="curve" smooth="yes"/>
      <point x="110" y="-262"/>
      <point x="160" y="-286"/>
      <point x="169" y="-254" type="curve" smooth="yes"/>
    </contour>
    <contour>
      <point x="262" y="86" type="curve"/>
      <point x="305" y="86"/>
      <point x="389" y="169"/>
      <point x="418" y="228" type="curve" smooth="yes"/>
      <point x="427" y="246"/>
      <point x="399" y="267"/>
      <point x="389" y="253" type="curve" smooth="yes"/>
      <point x="353" y="201"/>
      <point x="322" y="147"/>
      <point x="275" y="136" type="curve"/>
      <point x="184" y="183"/>
      <point x="173" y="30"/>
    </contour>
  </outline>
</glyph>
<glyph name="x" format="1">
  <advance width="326"/>
  <unicode hex="0078"/>
  <outline>
    <contour>
      <point x="379" y="284" type="curve" smooth="yes"/>
      <point x="394" y="335"/>
      <point x="320" y="354"/>
      <point x="281" y="305" type="curve" smooth="yes"/>
      <point x="152" y="146" type="line" smooth="yes"/>
      <point x="115" y="101"/>
      <point x="77" y="53"/>
      <point x="52" y="36" type="curve" smooth="yes"/>
      <point x="22" y="16"/>
      <point x="61" y="-36"/>
      <point x="85" y="0" type="curve" smooth="yes"/>
      <point x="108" y="36"/>
      <point x="140" y="76"/>
      <point x="169" y="113" type="curve" smooth="yes"/>
      <point x="291" y="264" type="line" smooth="yes"/>
      <point x="334" y="319"/>
      <point x="374" y="263"/>
    </contour>
    <contour>
      <point x="270" y="-4" type="curve" smooth="yes"/>
      <point x="358" y="-30"/>
      <point x="393" y="62"/>
      <point x="414" y="98" type="curve" smooth="yes"/>
      <point x="428" y="122"/>
      <point x="410" y="144"/>
      <point x="393" y="120" type="curve" smooth="yes"/>
      <point x="376" y="97"/>
      <point x="344" y="32"/>
      <point x="295" y="32" type="curve" smooth="yes"/>
      <point x="241" y="32"/>
      <point x="181" y="130"/>
      <point x="66" y="326" type="curve" smooth="yes"/>
      <point x="62" y="333"/>
      <point x="25" y="317"/>
      <point x="36" y="298" type="curve" smooth="yes"/>
      <point x="140" y="119"/>
      <point x="195" y="17"/>
    </contour>
  </outline>
</glyph>
<glyph name="braceleft" format="1">
  <advance width="394"/>
  <unicode hex="007B"/>
  <outline>
    <contour>
      <point x="330" y="-69" type="curve" smooth="yes"/>
      <point x="347" y="-67"/>
      <point x="345" y="-32"/>
      <point x="324" y="-34" type="curve" smooth="yes"/>
      <point x="217" y="-40"/>
      <point x="204" y="-11"/>
      <point x="204" y="52" type="curve" smooth="yes"/>
      <point x="204" y="104"/>
      <point x="219" y="160"/>
      <point x="219" y="211" type="curve" smooth="yes"/>
      <point x="219" y="264"/>
      <point x="181" y="291"/>
      <point x="129" y="297" type="curve"/>
      <point x="129" y="293" type="line"/>
      <point x="186" y="296"/>
      <point x="234" y="321"/>
      <point x="238" y="383" type="curve" smooth="yes"/>
      <point x="247" y="554"/>
      <point x="257" y="605"/>
      <point x="321" y="612" type="curve" smooth="yes"/>
      <point x="355" y="616"/>
      <point x="390" y="604"/>
      <point x="410" y="597" type="curve" smooth="yes"/>
      <point x="432" y="589"/>
      <point x="438" y="619"/>
      <point x="425" y="626" type="curve" smooth="yes"/>
      <point x="400" y="641"/>
      <point x="356" y="654"/>
      <point x="311" y="650" type="curve" smooth="yes"/>
      <point x="223" y="643"/>
      <point x="202" y="575"/>
      <point x="192" y="404" type="curve" smooth="yes"/>
      <point x="188" y="347"/>
      <point x="170" y="319"/>
      <point x="98" y="325" type="curve" smooth="yes"/>
      <point x="79" y="326"/>
      <point x="69" y="319"/>
      <point x="67" y="301" type="curve" smooth="yes"/>
      <point x="66" y="285"/>
      <point x="72" y="273"/>
      <point x="85" y="271" type="curve" smooth="yes"/>
      <point x="160" y="264"/>
      <point x="171" y="244"/>
      <point x="171" y="203" type="curve" smooth="yes"/>
      <point x="171" y="145"/>
      <point x="156" y="93"/>
      <point x="156" y="45" type="curve" smooth="yes"/>
      <point x="156" y="-43"/>
      <point x="198" y="-84"/>
    </contour>
  </outline>
</glyph>
<glyph name="yen" format="1">
  <advance width="562"/>
  <unicode hex="00A5"/>
  <outline>
    <contour>
      <point x="278" y="6" type="curve" smooth="yes"/>
      <point x="322" y="143" type="line"/>
      <point x="421" y="143" type="line" smooth="yes"/>
      <point x="451" y="143"/>
      <point x="465" y="145"/>
      <point x="465" y="165" type="curve" smooth="yes"/>
      <point x="465" y="175"/>
      <point x="456" y="175"/>
      <point x="437" y="175" type="curve" smooth="yes"/>
      <point x="331" y="175" type="line"/>
      <point x="350" y="230" type="line"/>
      <point x="439" y="230" type="line" smooth="yes"/>
      <point x="469" y="230"/>
      <point x="477" y="231"/>
      <point x="477" y="252" type="curve" smooth="yes"/>
      <point x="477" y="263"/>
      <point x="475" y="263"/>
      <point x="457" y="263" type="curve" smooth="yes"/>
      <point x="378" y="263" type="line"/>
      <point x="414" y="312"/>
      <point x="505" y="445"/>
      <point x="557" y="513" type="curve" smooth="yes"/>
      <point x="585" y="551"/>
      <point x="542" y="576"/>
      <point x="519" y="542" type="curve" smooth="yes"/>
      <point x="456" y="446"/>
      <point x="348" y="294"/>
      <point x="332" y="264" type="curve"/>
      <point x="326" y="288"/>
      <point x="263" y="512"/>
      <point x="253" y="547" type="curve" smooth="yes"/>
      <point x="241" y="591"/>
      <point x="195" y="574"/>
      <point x="208" y="529" type="curve" smooth="yes"/>
      <point x="290" y="263" type="line"/>
      <point x="217" y="263" type="line" smooth="yes"/>
      <point x="194" y="263"/>
      <point x="185" y="262"/>
      <point x="185" y="250" type="curve" smooth="yes"/>
      <point x="185" y="233"/>
      <point x="194" y="230"/>
      <point x="217" y="230" type="curve" smooth="yes"/>
      <point x="296" y="230" type="line"/>
      <point x="277" y="175" type="line"/>
      <point x="201" y="175" type="line" smooth="yes"/>
      <point x="179" y="175"/>
      <point x="171" y="174"/>
      <point x="171" y="162" type="curve" smooth="yes"/>
      <point x="171" y="146"/>
      <point x="180" y="143"/>
      <point x="201" y="143" type="curve" smooth="yes"/>
      <point x="270" y="143" type="line"/>
      <point x="265" y="127"/>
      <point x="237" y="36"/>
      <point x="232" y="22" type="curve" smooth="yes"/>
      <point x="217" y="-18"/>
      <point x="268" y="-27"/>
    </contour>
  </outline>
</glyph>
<glyph name="dieresis" format="1">
  <advance width="350"/>
  <unicode hex="00A8"/>
  <outline>
    <contour>
      <point x="106" y="455" type="curve" smooth="yes"/>
      <point x="131" y="455"/>
      <point x="146" y="472"/>
      <point x="146" y="497" type="curve" smooth="yes"/>
      <point x="146" y="520"/>
      <point x="133" y="532"/>
      <point x="111" y="532" type="curve" smooth="yes"/>
      <point x="86" y="532"/>
      <point x="73" y="515"/>
      <point x="73" y="490" type="curve" smooth="yes"/>
      <point x="73" y="467"/>
      <point x="84" y="455"/>
    </contour>
    <contour>
      <point x="253" y="455" type="curve" smooth="yes"/>
      <point x="278" y="455"/>
      <point x="292" y="472"/>
      <point x="292" y="497" type="curve" smooth="yes"/>
      <point x="292" y="520"/>
      <point x="279" y="532"/>
      <point x="257" y="532" type="curve" smooth="yes"/>
      <point x="232" y="532"/>
      <point x="219" y="515"/>
      <point x="219" y="490" type="curve" smooth="yes"/>
      <point x="219" y="467"/>
      <point x="231" y="455"/>
    </contour>
  </outline>
</glyph>
<glyph name="acute" format="1">
  <advance width="208"/>
  <unicode hex="00B4"/>
  <outline>
    <contour>
      <point x="81" y="422" type="curve" smooth="yes"/>
      <point x="217" y="517" type="line" smooth="yes"/>
      <point x="260" y="546"/>
      <point x="212" y="596"/>
      <point x="183" y="559" type="curve"/>
      <point x="67" y="439" type="line" smooth="yes"/>
      <point x="56" y="427"/>
      <point x="67" y="412"/>
    </contour>
  </outline>
</glyph>
<glyph name="cedilla" format="1">
  <advance width="404"/>
  <unicode hex="00B8"/>
  <outline>
    <contour>
      <point x="182" y="-122" type="curve" smooth="yes"/>
      <point x="226" y="7" type="line" smooth="yes"/>
      <point x="229" y="17"/>
      <point x="219" y="23"/>
      <point x="211" y="12" type="curve" smooth="yes"/>
      <point x="136" y="-106" type="line" smooth="yes"/>
      <point x="109" y="-147"/>
      <point x="165" y="-172"/>
    </contour>
    <contour>
      <point x="251" y="77" type="move" name="_bot"/>
    </contour>
  </outline>
</glyph>
<glyph name="onequarter" format="1">
  <advance width="967"/>
  <unicode hex="00BC"/>
  <outline>
    <contour>
      <point x="779" y="-19" type="curve" smooth="yes"/>
      <point x="786" y="-19"/>
      <point x="796" y="-13"/>
      <point x="799" y="3" type="curve" smooth="yes"/>
      <point x="815" y="83" type="line"/>
      <point x="833" y="83"/>
      <point x="875" y="81"/>
      <point x="896" y="82" type="curve" smooth="yes"/>
      <point x="918" y="83"/>
      <point x="922" y="125"/>
      <point x="909" y="124" type="curve" smooth="yes"/>
      <point x="898" y="123"/>
      <point x="883" y="122"/>
      <point x="826" y="122" type="curve"/>
      <point x="831" y="146"/>
      <point x="860" y="273"/>
      <point x="869" y="311" type="curve" smooth="yes"/>
      <point x="871" y="321"/>
      <point x="865" y="329"/>
      <point x="849" y="329" type="curve" smooth="yes"/>
      <point x="829" y="329"/>
      <point x="823" y="320"/>
      <point x="819" y="306" type="curve" smooth="yes"/>
      <point x="812" y="278"/>
      <point x="781" y="142"/>
      <point x="779" y="132" type="curve"/>
      <point x="754" y="115"/>
      <point x="673" y="124"/>
      <point x="664" y="124" type="curve"/>
      <point x="690" y="202"/>
      <point x="753" y="386"/>
      <point x="777" y="464" type="curve" smooth="yes"/>
      <point x="784" y="484"/>
      <point x="744" y="503"/>
      <point x="730" y="465" type="curve" smooth="yes"/>
      <point x="702" y="388"/>
      <point x="640" y="202"/>
      <point x="615" y="126" type="curve"/>
      <point x="601" y="88"/>
      <point x="608" y="79"/>
      <point x="629" y="79" type="curve" smooth="yes"/>
      <point x="680" y="79"/>
      <point x="708" y="82"/>
      <point x="768" y="82" type="curve"/>
      <point x="752" y="9" type="line" smooth="yes"/>
      <point x="748" y="-12"/>
      <point x="763" y="-20"/>
    </contour>
    <contour>
      <point x="344" y="5" type="curve" smooth="yes"/>
      <point x="594" y="564" type="line" smooth="yes"/>
      <point x="609" y="598"/>
      <point x="570" y="629"/>
      <point x="547" y="580" type="curve" smooth="yes"/>
      <point x="296" y="28" type="line" smooth="yes"/>
      <point x="273" y="-22"/>
      <point x="328" y="-32"/>
    </contour>
    <contour>
      <point x="171" y="215" type="curve" smooth="yes"/>
      <point x="202" y="375"/>
      <point x="249" y="622"/>
      <point x="255" y="653" type="curve" smooth="yes"/>
      <point x="260" y="680"/>
      <point x="256" y="701"/>
      <point x="236" y="697" type="curve" smooth="yes"/>
      <point x="201" y="690"/>
      <point x="157" y="676"/>
      <point x="129" y="667" type="curve" smooth="yes"/>
      <point x="105" y="660"/>
      <point x="109" y="613"/>
      <point x="134" y="620" type="curve" smooth="yes"/>
      <point x="147" y="624"/>
      <point x="186" y="634"/>
      <point x="202" y="640" type="curve"/>
      <point x="171" y="479"/>
      <point x="167" y="447"/>
      <point x="121" y="228" type="curve" smooth="yes"/>
      <point x="114" y="194"/>
      <point x="167" y="197"/>
    </contour>
  </outline>
</glyph>
<glyph name="ring" format="1">
  <advance width="251"/>
  <unicode hex="02DA"/>
  <outline>
    <contour>
      <point x="112" y="444" type="curve" smooth="yes"/>
      <point x="87" y="444"/>
      <point x="72" y="461"/>
      <point x="72" y="486" type="curve" smooth="yes"/>
      <point x="72" y="524"/>
      <point x="104" y="549"/>
      <point x="144" y="549" type="curve" smooth="yes"/>
      <point x="167" y="549"/>
      <point x="180" y="534"/>
      <point x="180" y="512" type="curve" smooth="yes"/>
      <point x="180" y="475"/>
      <point x="150" y="444"/>
    </contour>
    <contour>
      <point x="112" y="413" type="curve" smooth="yes"/>
      <point x="171" y="413"/>
      <point x="212" y="455"/>
      <point x="212" y="514" type="curve" smooth="yes"/>
      <point x="212" y="555"/>
      <point x="185" y="581"/>
      <point x="146" y="581" type="curve" smooth="yes"/>
      <point x="90" y="581"/>
      <point x="38" y="545"/>
      <point x="38" y="489" type="curve" smooth="yes"/>
      <point x="38" y="442"/>
      <point x="67" y="413"/>
    </contour>
  </outline>
</glyph>
<glyph name="tilde" format="1">
  <advance width="328"/>
  <unicode hex="02DC"/>
  <outline>
    <contour>
      <point x="221" y="493" type="curve" smooth="yes"/>
      <point x="253" y="493"/>
      <point x="291" y="536"/>
      <point x="291" y="569" type="curve" smooth="yes"/>
      <point x="291" y="576"/>
      <point x="286" y="580"/>
      <point x="276" y="580" type="curve" smooth="yes"/>
      <point x="248" y="580"/>
      <point x="242" y="540"/>
      <point x="215" y="520" type="curve"/>
      <point x="194" y="537"/>
      <point x="177" y="551"/>
      <point x="165" y="561" type="curve" smooth="yes"/>
      <point x="144" y="577"/>
      <point x="130" y="591"/>
      <point x="106" y="591" type="curve" smooth="yes"/>
      <point x="73" y="591"/>
      <point x="36" y="548"/>
      <point x="36" y="516" type="curve" smooth="yes"/>
      <point x="36" y="508"/>
      <point x="41" y="504"/>
      <point x="50" y="504" type="curve" smooth="yes"/>
      <point x="78" y="504"/>
      <point x="89" y="547"/>
      <point x="111" y="564" type="curve"/>
      <point x="133" y="548"/>
      <point x="149" y="534"/>
      <point x="162" y="523" type="curve" smooth="yes"/>
      <point x="183" y="507"/>
      <point x="196" y="493"/>
    </contour>
  </outline>
</glyph>
<glyph name="hungarumlaut" format="1">
  <advance width="350"/>
  <unicode hex="02DD"/>
  <outline>
    <contour>
      <point x="71" y="478" type="curve" smooth="yes"/>
      <point x="107" y="522"/>
      <point x="176" y="571"/>
      <point x="176" y="623" type="curve" smooth="yes"/>
      <point x="176" y="651"/>
      <point x="130" y="667"/>
      <point x="120" y="642" type="curve" smooth="yes"/>
      <point x="96" y="582"/>
      <point x="52" y="528"/>
      <point x="52" y="479" type="curve" smooth="yes"/>
      <point x="52" y="464"/>
      <point x="62" y="467"/>
    </contour>
    <contour>
      <point x="185" y="478" type="curve"/>
      <point x="221" y="519"/>
      <point x="263" y="558"/>
      <point x="297" y="598" type="curve" smooth="yes"/>
      <point x="335" y="642"/>
      <point x="264" y="666"/>
      <point x="250" y="641" type="curve" smooth="yes"/>
      <point x="218" y="581"/>
      <point x="166" y="532"/>
      <point x="166" y="479" type="curve" smooth="yes"/>
      <point x="166" y="466"/>
      <point x="173" y="466"/>
    </contour>
  </outline>
</glyph>
<glyph name="uni030F" format="1">
  <advance width="205"/>
  <unicode hex="030F"/>
  <outline>
    <contour>
      <point x="61" y="478" type="line" smooth="yes"/>
      <point x="71" y="467"/>
      <point x="84" y="478"/>
      <point x="77" y="490" type="curve" smooth="yes"/>
      <point x="-4" y="639" type="line" smooth="yes"/>
      <point x="-26" y="678"/>
      <point x="-87" y="639"/>
      <point x="-53" y="602" type="curve" smooth="yes"/>
    </contour>
    <contour>
      <point x="197" y="478" type="line" smooth="yes"/>
      <point x="207" y="467"/>
      <point x="221" y="478"/>
      <point x="214" y="490" type="curve" smooth="yes"/>
      <point x="132" y="639" type="line" smooth="yes"/>
      <point x="110" y="678"/>
      <point x="50" y="639"/>
      <point x="84" y="602" type="curve" smooth="yes"/>
    </contour>
  </outline>
</glyph>
<glyph name="daggerdbl" format="1">
  <advance width="394"/>
  <unicode hex="2021"/>
  <outline>
    <contour>
      <point x="176" y="-78" type="curve" smooth="yes"/>
      <point x="207" y="-78"/>
      <point x="210" y="-53"/>
      <point x="256" y="132" type="curve"/>
      <point x="360" y="132" type="line" smooth="yes"/>
      <point x="377" y="132"/>
      <point x="380" y="133"/>
      <point x="380" y="153" type="curve" smooth="yes"/>
      <point x="380" y="169"/>
      <point x="375" y="173"/>
      <point x="367" y="173" type="curve" smooth="yes"/>
      <point x="266" y="173" type="line"/>
      <point x="290" y="284" type="line"/>
      <point x="393" y="284" type="line" smooth="yes"/>
      <point x="410" y="284"/>
      <point x="413" y="286"/>
      <point x="413" y="306" type="curve" smooth="yes"/>
      <point x="413" y="322"/>
      <point x="408" y="326"/>
      <point x="399" y="326" type="curve" smooth="yes"/>
      <point x="298" y="326" type="line"/>
      <point x="320" y="418"/>
      <point x="332" y="450"/>
      <point x="332" y="489" type="curve" smooth="yes"/>
      <point x="332" y="506"/>
      <point x="329" y="510"/>
      <point x="326" y="510" type="curve" smooth="yes"/>
      <point x="292" y="510"/>
      <point x="295" y="480"/>
      <point x="253" y="326" type="curve"/>
      <point x="159" y="326" type="line" smooth="yes"/>
      <point x="146" y="326"/>
      <point x="139" y="321"/>
      <point x="139" y="303" type="curve" smooth="yes"/>
      <point x="139" y="285"/>
      <point x="140" y="284"/>
      <point x="155" y="284" type="curve" smooth="yes"/>
      <point x="244" y="284" type="line"/>
      <point x="217" y="173" type="line"/>
      <point x="126" y="173" type="line" smooth="yes"/>
      <point x="113" y="173"/>
      <point x="105" y="168"/>
      <point x="105" y="150" type="curve" smooth="yes"/>
      <point x="105" y="132"/>
      <point x="107" y="132"/>
      <point x="123" y="132" type="curve" smooth="yes"/>
      <point x="208" y="132" type="line"/>
      <point x="177" y="2"/>
      <point x="168" y="-23"/>
      <point x="167" y="-53" type="curve" smooth="yes"/>
      <point x="167" y="-64"/>
      <point x="172" y="-78"/>
    </contour>
  </outline>
</glyph>
<glyph name="guilsinglright" format="1">
  <advance width="372"/>
  <unicode hex="203A"/>
  <outline>
    <contour>
      <point x="109" y="40" type="curve" smooth="yes"/>
      <point x="113" y="40"/>
      <point x="115" y="41"/>
      <point x="122" y="43" type="curve"/>
      <point x="172" y="68"/>
      <point x="281" y="134"/>
      <point x="297" y="146" type="curve" smooth="yes"/>
      <point x="318" y="162"/>
      <point x="336" y="171"/>
      <point x="336" y="195" type="curve" smooth="yes"/>
      <point x="336" y="209"/>
      <point x="318" y="221"/>
      <point x="286" y="236" type="curve" smooth="yes"/>
      <point x="109" y="324" type="line"/>
      <point x="104" y="326"/>
      <point x="102" y="327"/>
      <point x="98" y="327" type="curve" smooth="yes"/>
      <point x="87" y="327"/>
      <point x="79" y="320"/>
      <point x="79" y="306" type="curve" smooth="yes"/>
      <point x="79" y="292"/>
      <point x="89" y="283"/>
      <point x="102" y="277" type="curve"/>
      <point x="280" y="187" type="line"/>
      <point x="122" y="94" type="line" smooth="yes"/>
      <point x="107" y="85"/>
      <point x="89" y="74"/>
      <point x="89" y="54" type="curve" smooth="yes"/>
      <point x="89" y="46"/>
      <point x="99" y="40"/>
    </contour>
  </outline>
</glyph>
<glyph name="trademark" format="1">
  <advance width="923"/>
  <unicode hex="2122"/>
  <outline>
    <contour>
      <point x="803" y="339" type="curve" smooth="yes"/>
      <point x="764" y="353"/>
      <point x="827" y="467"/>
      <point x="836" y="533" type="curve" smooth="yes"/>
      <point x="842" y="572"/>
      <point x="815" y="597"/>
      <point x="774" y="597" type="curve" smooth="yes"/>
      <point x="730" y="597"/>
      <point x="697" y="562"/>
      <point x="675" y="515" type="curve"/>
      <point x="685" y="558"/>
      <point x="668" y="604"/>
      <point x="619" y="597" type="curve" smooth="yes"/>
      <point x="581" y="592"/>
      <point x="529" y="554"/>
      <point x="499" y="489" type="curve"/>
      <point x="511" y="526"/>
      <point x="521" y="560"/>
      <point x="519" y="570" type="curve" smooth="yes"/>
      <point x="515" y="596"/>
      <point x="443" y="597"/>
      <point x="394" y="597" type="curve" smooth="yes"/>
      <point x="300" y="597"/>
      <point x="201" y="590"/>
      <point x="201" y="504" type="curve" smooth="yes"/>
      <point x="201" y="488"/>
      <point x="208" y="478"/>
      <point x="224" y="478" type="curve" smooth="yes"/>
      <point x="244" y="478"/>
      <point x="258" y="487"/>
      <point x="258" y="504" type="curve" smooth="yes"/>
      <point x="258" y="553"/>
      <point x="302" y="559"/>
      <point x="361" y="558" type="curve"/>
      <point x="292" y="350" type="line" smooth="yes"/>
      <point x="284" y="325"/>
      <point x="290" y="313"/>
      <point x="307" y="311" type="curve" smooth="yes"/>
      <point x="323" y="309"/>
      <point x="327" y="319"/>
      <point x="335" y="344" type="curve" smooth="yes"/>
      <point x="352" y="396"/>
      <point x="389" y="515"/>
      <point x="403" y="558" type="curve"/>
      <point x="424" y="559"/>
      <point x="463" y="557"/>
      <point x="482" y="552" type="curve"/>
      <point x="482" y="552"/>
      <point x="438" y="413"/>
      <point x="421" y="338" type="curve" smooth="yes"/>
      <point x="417" y="320"/>
      <point x="424" y="307"/>
      <point x="443" y="307" type="curve" smooth="yes"/>
      <point x="458" y="307"/>
      <point x="462" y="320"/>
      <point x="469" y="335" type="curve" smooth="yes"/>
      <point x="480" y="363"/>
      <point x="492" y="396"/>
      <point x="504" y="426" type="curve" smooth="yes"/>
      <point x="529" y="493"/>
      <point x="573" y="538"/>
      <point x="599" y="545" type="curve" smooth="yes"/>
      <point x="627" y="553"/>
      <point x="637" y="527"/>
      <point x="629" y="484" type="curve" smooth="yes"/>
      <point x="621" y="442"/>
      <point x="604" y="390"/>
      <point x="591" y="336" type="curve" smooth="yes"/>
      <point x="587" y="321"/>
      <point x="593" y="307"/>
      <point x="619" y="307" type="curve" smooth="yes"/>
      <point x="629" y="307"/>
      <point x="636" y="315"/>
      <point x="640" y="328" type="curve" smooth="yes"/>
      <point x="665" y="410"/>
      <point x="707" y="541"/>
      <point x="764" y="551" type="curve" smooth="yes"/>
      <point x="784" y="555"/>
      <point x="798" y="544"/>
      <point x="789" y="513" type="curve" smooth="yes"/>
      <point x="773" y="459"/>
      <point x="752" y="414"/>
      <point x="749" y="363" type="curve" smooth="yes"/>
      <point x="747" y="334"/>
      <point x="761" y="309"/>
      <point x="790" y="304" type="curve" smooth="yes"/>
      <point x="832" y="296"/>
      <point x="868" y="322"/>
      <point x="892" y="367" type="curve" smooth="yes"/>
      <point x="908" y="396"/>
      <point x="876" y="405"/>
      <point x="868" y="391" type="curve" smooth="yes"/>
      <point x="853" y="366"/>
      <point x="828" y="330"/>
    </contour>
  </outline>
</glyph>
<glyph name="estimated" format="1">
  <advance width="368"/>
  <unicode hex="212E"/>
  <outline>
    <contour>
      <point x="220" y="110" type="curve" smooth="yes"/>
      <point x="305" y="110"/>
      <point x="359" y="155"/>
      <point x="388" y="193" type="curve" smooth="yes"/>
      <point x="391" y="198"/>
      <point x="392" y="201"/>
      <point x="392" y="206" type="curve" smooth="yes"/>
      <point x="392" y="216"/>
      <point x="383" y="225"/>
      <point x="376" y="225" type="curve" smooth="yes"/>
      <point x="375" y="225"/>
      <point x="374" y="225"/>
      <point x="373" y="224" type="curve" smooth="yes"/>
      <point x="321" y="161"/>
      <point x="266" y="133"/>
      <point x="220" y="133" type="curve" smooth="yes"/>
      <point x="165" y="133"/>
      <point x="128" y="166"/>
      <point x="128" y="233" type="curve"/>
      <point x="269" y="233"/>
      <point x="332" y="280"/>
      <point x="332" y="348" type="curve" smooth="yes"/>
      <point x="332" y="392"/>
      <point x="296" y="436"/>
      <point x="215" y="436" type="curve" smooth="yes"/>
      <point x="141" y="436"/>
      <point x="59" y="386"/>
      <point x="63" y="248" type="curve" smooth="yes"/>
      <point x="66" y="140"/>
      <point x="168" y="110"/>
    </contour>
    <contour>
      <point x="128" y="248" type="curve"/>
      <point x="128" y="370"/>
      <point x="169" y="424"/>
      <point x="217" y="424" type="curve" smooth="yes"/>
      <point x="255" y="424"/>
      <point x="279" y="393"/>
      <point x="279" y="357" type="curve" smooth="yes"/>
      <point x="279" y="309"/>
      <point x="236" y="251"/>
    </contour>
  </outline>
</glyph>
<glyph name="lozenge" format="1">
  <advance width="420"/>
  <unicode hex="25CA"/>
  <outline>
    <contour>
      <point x="336" y="474" type="line" smooth="yes"/>
      <point x="324" y="506"/>
      <point x="297" y="516"/>
      <point x="272" y="479" type="curve" smooth="yes"/>
      <point x="217" y="396"/>
      <point x="171" y="330"/>
      <point x="120" y="253" type="curve"/>
      <point x="208" y="31" type="line"/>
      <point x="221" y="-2"/>
      <point x="248" y="-12"/>
      <point x="272" y="24" type="curve" smooth="yes"/>
      <point x="328" y="108"/>
      <point x="372" y="171"/>
      <point x="423" y="248" type="curve"/>
    </contour>
    <contour>
      <point x="170" y="253" type="line"/>
      <point x="214" y="318"/>
      <point x="260" y="391"/>
      <point x="295" y="443" type="curve"/>
      <point x="367" y="248" type="line"/>
      <point x="323" y="183"/>
      <point x="287" y="111"/>
      <point x="250" y="59" type="curve"/>
    </contour>
  </outline>
</glyph>
<glyph name="uniFB01" format="1">
  <advance width="463"/>
  <unicode hex="FB01"/>
  <outline>
    <contour>
      <point x="116" y="-205" type="curve" smooth="yes"/>
      <point x="188" y="-205"/>
      <point x="224" y="-142"/>
      <point x="215" y="-37" type="curve" smooth="yes"/>
      <point x="209" y="30"/>
      <point x="176" y="119"/>
      <point x="153" y="152" type="curve"/>
      <point x="215" y="145"/>
      <point x="271" y="156"/>
      <point x="313" y="181" type="curve"/>
      <point x="291" y="95"/>
      <point x="298" y="15"/>
      <point x="374" y="10" type="curve" smooth="yes"/>
      <point x="434" y="6"/>
      <point x="481" y="48"/>
      <point x="515" y="80" type="curve"/>
      <point x="558" y="113"/>
      <point x="521" y="146"/>
      <point x="506" y="117" type="curve"/>
      <point x="522" y="152"/>
      <point x="436" y="47"/>
      <point x="387" y="49" type="curve" smooth="yes"/>
      <point x="360" y="51"/>
      <point x="351" y="78"/>
      <point x="351" y="99" type="curve" smooth="yes"/>
      <point x="351" y="179"/>
      <point x="381" y="234"/>
      <point x="402" y="285" type="curve" smooth="yes"/>
      <point x="406" y="295"/>
      <point x="411" y="306"/>
      <point x="395" y="315" type="curve" smooth="yes"/>
      <point x="380" y="323"/>
      <point x="365" y="319"/>
      <point x="356" y="304" type="curve" smooth="yes"/>
      <point x="346" y="286"/>
      <point x="334" y="250"/>
      <point x="324" y="228" type="curve"/>
      <point x="285" y="197"/>
      <point x="169" y="178"/>
      <point x="131" y="200" type="curve"/>
      <point x="194" y="276"/>
      <point x="321" y="449"/>
      <point x="314" y="552" type="curve" smooth="yes"/>
      <point x="311" y="592"/>
      <point x="283" y="622"/>
      <point x="245" y="622" type="curve" smooth="yes"/>
      <point x="105" y="622"/>
      <point x="36" y="217"/>
      <point x="36" y="-23" type="curve" smooth="yes"/>
      <point x="36" y="-104"/>
      <point x="48" y="-205"/>
    </contour>
    <contour>
      <point x="120" y="-164" type="curve" smooth="yes"/>
      <point x="88" y="-164"/>
      <point x="81" y="-85"/>
      <point x="81" y="-26" type="curve" smooth="yes"/>
      <point x="81" y="100"/>
      <point x="100" y="164"/>
      <point x="100" y="164" type="curve"/>
      <point x="132" y="120"/>
      <point x="159" y="39"/>
      <point x="167" y="-32" type="curve" smooth="yes"/>
      <point x="175" y="-103"/>
      <point x="164" y="-164"/>
    </contour>
    <contour>
      <point x="444" y="412" type="curve" smooth="yes"/>
      <point x="471" y="412"/>
      <point x="487" y="430"/>
      <point x="487" y="454" type="curve" smooth="yes"/>
      <point x="487" y="472"/>
      <point x="473" y="485"/>
      <point x="451" y="485" type="curve" smooth="yes"/>
      <point x="424" y="485"/>
      <point x="404" y="470"/>
      <point x="404" y="446" type="curve" smooth="yes"/>
      <point x="404" y="423"/>
      <point x="418" y="412"/>
    </contour>
    <contour>
      <point x="105" y="224" type="curve"/>
      <point x="105" y="285"/>
      <point x="159" y="570"/>
      <point x="236" y="570" type="curve" smooth="yes"/>
      <point x="262" y="570"/>
      <point x="270" y="547"/>
      <point x="268" y="522" type="curve" smooth="yes"/>
      <point x="261" y="451"/>
      <point x="169" y="310"/>
    </contour>
  </outline>
</glyph>
